<svg width="11" height="15" viewBox="0 0 11 15" fill="none" xmlns="http://www.w3.org/2000/svg">
<g clip-path="url(#clip0_14_64)">
<path d="M0.5 0.5L6 4V14.5L0.5 11V0.5Z" fill="white"/>
<path d="M5.50284 3.0649C6.2392 2.53856 6.96761 2.01871 7.69603 1.49886C8.30872 1.06223 8.91913 0.622357 9.53522 0.188968C9.97999 -0.123375 10.5666 -0.0271861 10.8559 0.398637C10.9626 0.55643 10.9989 0.730433 10.9989 0.915245C10.9977 3.1211 10.9989 5.32695 10.9989 7.53172C10.9989 8.61897 10.9955 9.70731 11.0011 10.7946C11.0023 11.1328 10.8661 11.389 10.5825 11.5911C9.07911 12.6589 7.57916 13.731 6.07808 14.8021C5.7116 15.0636 5.29974 15.0679 4.93553 14.8085C3.41176 13.7234 1.89025 12.6362 0.367612 11.5489C0.108922 11.3641 0 11.1112 0 10.8064C0.00113461 8.12182 0 5.43718 0 2.75255C0 2.13976 0.00226921 1.52696 0 0.913083C0 0.548864 0.153172 0.263541 0.495823 0.099264C0.843012 -0.0671745 1.17886 -0.0196207 1.49087 0.203018C2.78773 1.13032 4.08571 2.05546 5.3837 2.98168C5.42001 3.00761 5.45632 3.03247 5.50397 3.0649H5.50284ZM5.50624 14.1449C5.50624 14.0693 5.50624 14.0271 5.50624 13.985C5.50624 10.7448 5.50624 7.5047 5.50738 4.26455C5.50738 4.17917 5.48355 4.12297 5.4098 4.07001C3.94048 3.02491 2.47344 1.97764 1.00526 0.931457C0.97803 0.912003 0.947396 0.897953 0.903146 0.872014V0.990899C0.903146 4.24402 0.903146 7.49713 0.900877 10.7502C0.900877 10.8335 0.930377 10.8821 0.998453 10.9307C2.11264 11.7219 3.22455 12.5162 4.33646 13.3106C4.71656 13.5819 5.09551 13.8531 5.50624 14.146V14.1449Z" fill="#189E00"/>
</g>
<defs>
<clipPath id="clip0_14_64">
<rect width="11" height="15" fill="white"/>
</clipPath>
</defs>
</svg>
