<svg width="34" height="38" viewBox="0 0 34 38" fill="none" xmlns="http://www.w3.org/2000/svg">
<path d="M3.56392 25.992C3.46792 25.704 3.33992 25.3787 3.17992 25.016C3.03059 24.6533 2.86526 24.3333 2.68392 24.056C3.23859 23.6507 3.73992 23.16 4.18792 22.584C4.64659 22.008 5.05726 21.3573 5.41992 20.632C5.24926 20.3653 5.07326 20.1253 4.89192 19.912C4.72126 19.6987 4.56126 19.528 4.41192 19.4C4.47592 19.272 4.55592 19.1013 4.65192 18.888C4.75859 18.664 4.85992 18.4347 4.95592 18.2C5.05192 17.9653 5.12126 17.768 5.16392 17.608C5.31326 17.7253 5.47326 17.88 5.64392 18.072C5.82526 18.264 6.00126 18.4827 6.17192 18.728C6.40659 18.0347 6.60392 17.272 6.76392 16.44H5.05192C4.81726 17.1867 4.56126 17.88 4.28392 18.52C4.01726 19.1493 3.72926 19.72 3.41992 20.232C3.28126 19.976 3.12126 19.7253 2.93992 19.48C2.75859 19.224 2.57192 19.0053 2.37992 18.824C2.74259 18.28 3.07859 17.624 3.38792 16.856C3.70792 16.088 3.99059 15.2773 4.23592 14.424C4.49192 13.5707 4.68926 12.7547 4.82792 11.976C4.92392 12.04 5.05192 12.12 5.21192 12.216C5.37192 12.3013 5.53192 12.3867 5.69192 12.472C5.86259 12.5573 5.99059 12.616 6.07592 12.648C6.01192 12.9467 5.94792 13.24 5.88392 13.528C5.81992 13.8053 5.75059 14.0827 5.67592 14.36C5.85726 14.36 6.09726 14.36 6.39592 14.36C6.69459 14.36 6.98792 14.3547 7.27592 14.344C7.56392 14.3227 7.78792 14.296 7.94792 14.264C8.03326 14.4027 8.12392 14.5627 8.21992 14.744C8.31592 14.9147 8.40126 15.0747 8.47592 15.224C8.43326 15.384 8.36926 15.608 8.28392 15.896C8.20926 16.184 8.12926 16.488 8.04392 16.808C7.96926 17.128 7.89992 17.416 7.83592 17.672C7.72926 18.1093 7.61726 18.536 7.49992 18.952C7.39326 19.368 7.27592 19.7733 7.14792 20.168C7.28659 20.4027 7.41992 20.6373 7.54792 20.872C7.67592 21.1067 7.79326 21.336 7.89992 21.56C7.83592 21.688 7.73992 21.8747 7.61192 22.12C7.48392 22.3653 7.35592 22.6107 7.22792 22.856C7.11059 23.1013 7.01459 23.3093 6.93992 23.48C6.86526 23.288 6.77459 23.08 6.66792 22.856C6.57192 22.632 6.45992 22.4027 6.33192 22.168C5.62792 23.6933 4.70526 24.968 3.56392 25.992ZM12.0439 25.992C11.9479 25.704 11.8199 25.3787 11.6599 25.016C11.5106 24.6533 11.3453 24.3333 11.1639 24.056C11.7186 23.6507 12.2199 23.16 12.6679 22.584C13.1266 22.008 13.5373 21.3573 13.8999 20.632C13.7293 20.3653 13.5533 20.1253 13.3719 19.912C13.2013 19.6987 13.0413 19.528 12.8919 19.4C12.9559 19.272 13.0359 19.1013 13.1319 18.888C13.2386 18.664 13.3399 18.4347 13.4359 18.2C13.5319 17.9653 13.6013 17.768 13.6439 17.608C13.7933 17.7253 13.9533 17.88 14.1239 18.072C14.3053 18.264 14.4813 18.4827 14.6519 18.728C14.8866 18.0347 15.0839 17.272 15.2439 16.44H13.5319C13.2973 17.1867 13.0413 17.88 12.7639 18.52C12.4973 19.1493 12.2093 19.72 11.8999 20.232C11.7613 19.976 11.6013 19.7253 11.4199 19.48C11.2386 19.224 11.0519 19.0053 10.8599 18.824C11.2226 18.28 11.5586 17.624 11.8679 16.856C12.1879 16.088 12.4706 15.2773 12.7159 14.424C12.9719 13.5707 13.1693 12.7547 13.3079 11.976C13.4039 12.04 13.5319 12.12 13.6919 12.216C13.8519 12.3013 14.0119 12.3867 14.1719 12.472C14.3426 12.5573 14.4706 12.616 14.5559 12.648C14.4919 12.9467 14.4279 13.24 14.3639 13.528C14.2999 13.8053 14.2306 14.0827 14.1559 14.36C14.3373 14.36 14.5773 14.36 14.8759 14.36C15.1746 14.36 15.4679 14.3547 15.7559 14.344C16.0439 14.3227 16.2679 14.296 16.4279 14.264C16.5133 14.4027 16.6039 14.5627 16.6999 14.744C16.7959 14.9147 16.8813 15.0747 16.9559 15.224C16.9133 15.384 16.8493 15.608 16.7639 15.896C16.6893 16.184 16.6093 16.488 16.5239 16.808C16.4493 17.128 16.3799 17.416 16.3159 17.672C16.2093 18.1093 16.0973 18.536 15.9799 18.952C15.8733 19.368 15.7559 19.7733 15.6279 20.168C15.7666 20.4027 15.8999 20.6373 16.0279 20.872C16.1559 21.1067 16.2733 21.336 16.3799 21.56C16.3159 21.688 16.2199 21.8747 16.0919 22.12C15.9639 22.3653 15.8359 22.6107 15.7079 22.856C15.5906 23.1013 15.4946 23.3093 15.4199 23.48C15.3453 23.288 15.2546 23.08 15.1479 22.856C15.0519 22.632 14.9399 22.4027 14.8119 22.168C14.1079 23.6933 13.1853 24.968 12.0439 25.992ZM22.2679 14.296C22.0333 13.9547 21.7613 13.6133 21.4519 13.272C21.1533 12.92 20.8173 12.5947 20.4439 12.296L21.4519 11.432C21.7719 11.6667 22.1026 11.9653 22.4439 12.328C22.7959 12.68 23.0999 13.0373 23.3559 13.4L22.2679 14.296ZM20.7959 15.496C20.5719 15.1547 20.3053 14.8133 19.9959 14.472C19.6866 14.12 19.3453 13.7947 18.9719 13.496L19.9799 12.632C20.2999 12.8667 20.6306 13.16 20.9719 13.512C21.3239 13.864 21.6279 14.2213 21.8839 14.584L20.7959 15.496ZM24.7959 21.704L24.4599 13.8H26.6519L26.3159 21.704H24.7959ZM25.5479 25.24C25.1853 25.24 24.8759 25.1173 24.6199 24.872C24.3746 24.616 24.2519 24.3067 24.2519 23.944C24.2519 23.5813 24.3746 23.2773 24.6199 23.032C24.8759 22.776 25.1853 22.648 25.5479 22.648C25.9106 22.648 26.2199 22.776 26.4759 23.032C26.7319 23.2773 26.8599 23.5813 26.8599 23.944C26.8599 24.3067 26.7319 24.616 26.4759 24.872C26.2199 25.1173 25.9106 25.24 25.5479 25.24ZM30.0259 21.704L29.6899 13.8H31.8819L31.5459 21.704H30.0259ZM30.7779 25.24C30.4153 25.24 30.1059 25.1173 29.8499 24.872C29.6046 24.616 29.4819 24.3067 29.4819 23.944C29.4819 23.5813 29.6046 23.2773 29.8499 23.032C30.1059 22.776 30.4153 22.648 30.7779 22.648C31.1406 22.648 31.4499 22.776 31.7059 23.032C31.9619 23.2773 32.0899 23.5813 32.0899 23.944C32.0899 24.3067 31.9619 24.616 31.7059 24.872C31.4499 25.1173 31.1406 25.24 30.7779 25.24Z" fill="white"/>
<line x1="0.741181" y1="9.3163" x2="31.6508" y2="1.03409" stroke="white" stroke-width="2"/>
<line x1="1.67874" y1="28.703" x2="32.5884" y2="36.9852" stroke="white" stroke-width="2"/>
</svg>
